<svg id="Capa_1" data-name="Capa 1" xmlns="http://www.w3.org/2000/svg" viewBox="0 0 865.32 644.93"><defs><style>.cls-1{fill:#383938;}</style></defs><title>Dentista</title><rect class="cls-1" x="752.27" y="454.71" width="106.5" height="106.5" transform="translate(211.05 1235.95) rotate(-90)"/><path class="cls-1" d="M950.3,633.55l-90.47-90.63a5.3,5.3,0,0,0-7.73.27L846,550.1a5.32,5.32,0,0,0,.22,7.25L936.7,648a5.31,5.31,0,0,0,7.73-.26l6.08-6.91A5.3,5.3,0,0,0,950.3,633.55Z" transform="translate(-86.52 -77.53)"/><path class="cls-1" d="M765.05,451.47l-90.46-90.63a5.3,5.3,0,0,0-7.73.27L660.78,368a5.3,5.3,0,0,0,.21,7.25l90.47,90.62a5.3,5.3,0,0,0,7.73-.26l6.08-6.91A5.31,5.31,0,0,0,765.05,451.47Z" transform="translate(-86.52 -77.53)"/><path class="cls-1" d="M676.51,649.06l90.62-90.47a5.31,5.31,0,0,0-.26-7.73L760,544.79a5.29,5.29,0,0,0-7.24.21l-90.63,90.47a5.3,5.3,0,0,0,.27,7.73l6.91,6.07A5.3,5.3,0,0,0,676.51,649.06Z" transform="translate(-86.52 -77.53)"/><path class="cls-1" d="M858.58,463.81l90.63-90.46a5.31,5.31,0,0,0-.26-7.73L942,359.54a5.31,5.31,0,0,0-7.25.22l-90.62,90.46a5.31,5.31,0,0,0,.26,7.73l6.92,6.08A5.29,5.29,0,0,0,858.58,463.81Z" transform="translate(-86.52 -77.53)"/><path class="cls-1" d="M814.8,235.65,663.15,81.33c-3.62-3.68-8.47-4.91-10.57-2.68l-6.31,6.7c-1.92,2-.85,6.24,2.45,9.6L800.37,249.27c3.62,3.68,8.47,4.91,10.58,2.67l6.31-6.69C819.18,243.21,818.1,239,814.8,235.65Z" transform="translate(-86.52 -77.53)"/><path class="cls-1" d="M816.42,452.33l1.79-200.91c0-4.79-2.52-8.77-5.59-8.67l-9.2.3c-2.8.09-5,3.57-5,7.94L796.59,451.9c0,4.79,2.52,8.77,5.59,8.67l9.2-.3C814.18,460.18,816.39,456.7,816.42,452.33Z" transform="translate(-86.52 -77.53)"/><rect class="cls-1" x="574.82" y="132.24" width="134.53" height="66.11" transform="translate(892.71 658.67) rotate(-135)"/><path class="cls-1" d="M423.83,133.76c-22.61,0-45.22-.19-67.83.1-8.69.11-14.7-10.08-14.43-22,.21-9.73,2.59-18.16,7.22-24.86s10-9.51,16.23-9.47c17.17.12,34.34,0,51.52,0,22.1,0,44.22.19,66.32-.06,11.61-.14,20.5,12.55,22.66,27.42,2,13.57-1.8,25-9.61,28.15a11.22,11.22,0,0,1-4.25.62Q457.75,133.77,423.83,133.76Z" transform="translate(-86.52 -77.53)"/><path class="cls-1" d="M423.81,722.46a247.19,247.19,0,0,1-56.29-6.12c-21.19-4.84-26.23-17.39-25.95-36.11.21-14.5,2.59-27.06,7.22-37s10-14.18,16.23-14.12c17.17.17,34.34.06,51.52.06,22.11,0,44.22.28,66.32-.1,11.61-.2,20.5,18.71,22.66,40.88,1,10.15,2.1,21.63-2.2,31.32-8.27,18.64-46.67,19.57-65.27,20.74Q430.94,722.42,423.81,722.46Z" transform="translate(-86.52 -77.53)"/><path class="cls-1" d="M368.23,341.62H479.37c-.44,12-.83,23.66-1.32,35.35q-1.24,30-2.58,59.95-1.64,38.1-3.26,76.19c-.29,6.73-.61,13.45-.83,20.18-.43,13.55-6.31,23.25-14.68,23.32q-33.1.25-66.2,0c-8.34-.08-14.1-10-14.62-23.51-1.23-31.77-2.66-63.51-3.93-95.27-1-25.79-2-51.58-2.95-77.37C368.77,354.33,368.5,348.22,368.23,341.62Z" transform="translate(-86.52 -77.53)"/><path class="cls-1" d="M477.8,326.2H366.66c.44-7.37.83-14.58,1.32-21.78.83-12.32,1.72-24.63,2.58-36.95q1.63-23.48,3.26-47c.28-4.14.61-8.28.82-12.43.44-8.35,6.32-14.33,14.69-14.37q33.09-.17,66.19,0c8.34.05,14.1,6.18,14.62,14.49,1.23,19.58,2.66,39.14,3.94,58.72,1,15.89,2,31.78,2.94,47.68C477.26,318.37,477.52,322.14,477.8,326.2Z" transform="translate(-86.52 -77.53)"/><path class="cls-1" d="M519.94,397.3,509.48,198.47c-.25-4.75,2.8-8.77,6.65-8.77h11.55c3.51,0,6.42,3.37,6.65,7.7l10.45,198.84C545,401,542,405,538.13,405H526.59C523.07,405,520.16,401.63,519.94,397.3Z" transform="translate(-86.52 -77.53)"/><path class="cls-1" d="M327.66,397.3l10.46-198.83c.25-4.75-2.8-8.77-6.65-8.77H319.92c-3.51,0-6.42,3.37-6.65,7.7L302.82,396.24c-.25,4.74,2.8,8.76,6.65,8.76H321C324.53,405,327.44,401.63,327.66,397.3Z" transform="translate(-86.52 -77.53)"/><path class="cls-1" d="M501.75,194.17c-.22-4.33,2.56-8,6.08-8h1.64a39.63,39.63,0,0,0-31.14-35.68A99.76,99.76,0,0,0,466,149.08H448.47a4.8,4.8,0,0,1-1.85.25c-8.21-.14-16.42-.05-24.63-.05-8,0-16-.1-24,.06a5.28,5.28,0,0,1-1.95-.26H380.36c-3.79.23-7.31.38-10.8.74C351.34,151.75,336,168,335,186.17h4.23c3.51,0,6.3,3.67,6.07,8l-6.14,132c5.05,0,10,0,15,.08,2.39,0,3.15-.88,3.28-3,.63-10.52,1.3-36.25,2-46.76s1.4-20.82,2.11-31.22c1-14,2.25-27.95,2.84-41.95.65-15.61,11.9-27.33,27.64-27.48q30.06-.3,60.13,0c15.29.14,27.23,11.57,27.88,25.94.5,11.27,1.27,22.52,2,33.77q1.82,28.56,3.74,57.1c.4,6.06.91,27.32,1.37,33.41h20.76Z" transform="translate(-86.52 -77.53)"/><path class="cls-1" d="M513.56,403l-2.75-61.26c-5.93,0-11.75.05-17.57-.12-2.45-.08-3.23,1.46-3.36,5-.65,17.47-1.33,43.95-2,61.43Q486.79,434,485.68,460c-1,23.24-2.3,46.44-2.91,69.7-.67,25.94-12.19,45.42-28.3,45.67q-30.8.51-61.59,0c-15.65-.23-27.88-19.23-28.55-43.12-.52-18.71-1.3-37.42-2-56.11q-1.87-47.44-3.84-94.88c-.41-10.08-.93-29.53-1.4-39.64H336.5L333.77,403c-.17,3.25-2,5.92-4.37,6.85l.78,24.2q2,60.87,3.89,121.75c.91,29.89,13.93,55.39,32,61.52,4.06,1.38,8.24,1.77,12.64,2.36h17.94a3.15,3.15,0,0,1,1.89-.42c8.41.23,16.82.08,25.23.08,8.2,0,16.39.17,24.58-.09a3.28,3.28,0,0,1,2,.43H466.4c3.88-.39,7.48-.63,11.06-1.24,18.77-3.22,34.56-30.49,35.43-61,.43-14.88.93-29.74,1.41-44.62q1.53-46.69,3.08-93.39c.11-3.24.22-6.47.34-9.71A7.61,7.61,0,0,1,513.56,403Z" transform="translate(-86.52 -77.53)"/><path class="cls-1" d="M112.62,328.78a8.84,8.84,0,0,1-6.29-2.61l-5.92-5.91a47.58,47.58,0,0,1,0-67.21l52.25-52.24a47.57,47.57,0,0,1,67.2,0l5.92,5.91A8.9,8.9,0,0,1,213.2,219.3l-5.92-5.91a29.75,29.75,0,0,0-42,0L113,265.63a29.77,29.77,0,0,0,0,42.05l5.92,5.91a8.9,8.9,0,0,1-6.29,15.19Z" transform="translate(-86.52 -77.53)"/><path class="cls-1" d="M221.64,225.29a8.11,8.11,0,0,1-11-.4l-5.39-5.4a27.17,27.17,0,0,0-38.36,0l-47.65,47.66a27.15,27.15,0,0,0,0,38.35l5.4,5.39a8.12,8.12,0,0,1,.39,11,55.62,55.62,0,0,0,72.51-5.3l18.84-18.84A55.61,55.61,0,0,0,221.64,225.29Z" transform="translate(-86.52 -77.53)"/></svg>