<svg id="Capa_1" data-name="Capa 1" xmlns="http://www.w3.org/2000/svg" viewBox="0 0 536 114.56"><defs><style>.cls-1{fill:#a7a9ac;}.cls-2{fill:#e6e7e8;}.cls-3{fill:#f1f2f2;}</style></defs><title>Logotipo_Blanco</title><path class="cls-1" d="M.11,6.46h30V8.58c0,16.23-.06,32.47,0,48.7a23.44,23.44,0,0,0,1,6.53C32.2,67.31,34.81,69,38.52,69s6.35-1.64,7.4-5.13a23.71,23.71,0,0,0,1-6.69C47,41,47,24.79,47,8.61V6.47c.78,0,1.39-.09,2-.09,8.72,0,17.43,0,26.15-.08,1.58,0,2,.45,2,2C77,25.12,77,41.92,77,58.73c0,14-7.24,24.13-20.71,28.08a59.91,59.91,0,0,1-37.46-.7C7.12,82,.31,72.53.14,60.14-.09,42.6,0,25.05,0,7.5,0,7.22.07,6.94.11,6.46Z"/><polygon class="cls-1" points="80.66 6.3 113.63 6.3 130.86 35.01 130.86 6.3 158.98 6.3 158.98 87.69 131.35 87.69 108.98 49.57 108.98 87.69 80.66 87.69 80.66 6.3"/><path class="cls-2" d="M474.9,69.84c-1.34,1.38-2.32,2.6-3.5,3.59a19.29,19.29,0,0,1-11.18,4.27c-5.73.45-11.21-.47-16.07-3.84a25.39,25.39,0,0,1-10-14.24,40.48,40.48,0,0,1,0-23.58c2.73-8.95,8.33-15.32,17.81-17.28,6.41-1.32,12.72-.84,18.09,3.56A51.08,51.08,0,0,1,474,26.39a8.67,8.67,0,0,0,.14-1c-.06-4.85-.11-9.69-.21-14.53a7.18,7.18,0,0,0-.36-2.05,2.8,2.8,0,0,0-3.2-2.26c-1.73.1-3.46.47-5.19.51-2.51,0-3.76-1.41-3.56-3.9A3.06,3.06,0,0,1,464.26.32a18,18,0,0,1,4.8-.25,40.56,40.56,0,0,0,10,0c2.26-.31,3.58.86,3.66,3.18.09,2.61,0,5.23,0,7.84-.16,14-.38,28-.46,42,0,4.27.22,8.54.49,12.81.18,2.9,1.58,3.84,4.45,3.42a17.57,17.57,0,0,1,4.27-.27,3.16,3.16,0,0,1,3.07,3.54,3.36,3.36,0,0,1-3.3,3.53c-2.43.07-4.87-.22-7.3-.25-1.43,0-2.86.14-4.29.24-.56,0-1.12.14-1.69.15a2.68,2.68,0,0,1-3-2.71c-.05-.56,0-1.13-.05-1.7S474.9,70.8,474.9,69.84Zm-.82-22h-.47c0-2.53.13-5.07,0-7.58A15.25,15.25,0,0,0,454.8,25.75c-6.32,1.32-9.89,5.54-11.85,11.33a35.71,35.71,0,0,0-1,17.57,21.1,21.1,0,0,0,5.15,11.11c3.33,3.61,7.56,4.86,12.39,4.75a13.85,13.85,0,0,0,13.56-11.39C473.67,55.39,473.77,51.58,474.08,47.8Z"/><path class="cls-2" d="M170.86,25.88c1.37-1.13,2.78-2.23,4.12-3.41a17.22,17.22,0,0,1,11-4.19,24.68,24.68,0,0,1,12.57,2.3A22.49,22.49,0,0,1,210.2,34.86c2.89,9.84,2.66,19.69-1.78,29.07C204.13,73,196.74,77.6,186.66,77.78c-5.07.09-9.8-1-13.68-4.48-1.17-1.06-2.15-2.34-3.39-3.71.11,1,.17,1.7.28,2.45.47,3.12-1.14,4.9-4.27,4.7a3.46,3.46,0,0,1-3.23-3.38,58.44,58.44,0,0,1,0-7.83c.84-17.76.71-35.52.3-53.28A14.35,14.35,0,0,0,162,8.54a2.58,2.58,0,0,0-3.06-1.84c-1.51.2-3,.52-4.53.6-2.18.11-3.58-1.09-3.75-3-.21-2.38.68-3.75,3-4.06a16.9,16.9,0,0,1,4.92.08A24.18,24.18,0,0,0,167.75.1a7.53,7.53,0,0,1,1.43-.1c1.95,0,2.83.75,2.83,2.74s-.18,4-.26,6q-.37,8.37-.73,16.73a6.3,6.3,0,0,0,0,.75ZM171,47.93c.33,3.52.52,7.4,1.11,11.22.62,4.09,2.6,7.56,6.38,9.53,7.09,3.69,17.59,2.55,22.12-7.9,3.2-7.4,3.11-15.07,1.15-22.77a17.45,17.45,0,0,0-4.69-8.47c-4.53-4.4-9.92-5.1-15.61-3-5.1,1.87-8.57,5.57-9.55,11C171.29,40.83,171.28,44.22,171,47.93Z"/><path class="cls-2" d="M292.07,69.49c-.68.82-1.21,1.5-1.79,2.13a19,19,0,0,1-12.06,5.89c-5.2.65-10.27.3-15.07-2-10.5-5-10.58-17.3-6-23.35A18.15,18.15,0,0,1,269,45.36c5.19-.89,10.42-1.52,15.61-2.41,2.49-.42,4.94-1.3,5.93-3.94,1.95-5.18.49-11.46-6.4-13.34A17.17,17.17,0,0,0,270,27.74a4.52,4.52,0,0,0-1.59,1.66,1.76,1.76,0,0,0,.28,1.58c2,2.15,2.54,4.57,1.29,6.69s-4.07,3-6.83,2.28c-3.47-.93-5.51-4.68-4.75-8.48.95-4.78,4.05-7.78,8.05-10.08a26.05,26.05,0,0,1,14.22-3.16,24.85,24.85,0,0,1,9.79,2c5.38,2.51,8.1,7,8.9,12.67a44.54,44.54,0,0,1,.36,6c.09,8.82.09,17.64.19,26.46a9.94,9.94,0,0,0,.68,3.15,3.44,3.44,0,0,0,6.38-.08,16.68,16.68,0,0,0,.8-4.07c.13-2.13,0-4.28.05-6.42s.95-3.26,2.65-3.44c2.22-.24,3.86.63,4,2.72.28,3.37.18,6.78.15,10.17A10.76,10.76,0,0,1,313,73.22a8.59,8.59,0,0,1-6.8,3.89,25.18,25.18,0,0,1-7.5-.51c-3.08-.7-5.06-2.92-6.12-5.92C292.46,70.36,292.31,70.05,292.07,69.49Zm-.95-22.23c-4.85,3.65-7.19,3.62-12.72,4.33-3.27.43-6.59.62-9.66,2-4.28,1.94-5.43,4.5-5.42,7.84,0,3.85,2,6.57,5.59,8a17.66,17.66,0,0,0,9.78.73c5.32-.91,9.26-3.73,11.24-8.86C291.66,56.87,290.85,52.16,291.12,47.26Z"/><path class="cls-2" d="M402.5,49.21c-6,0-12.05,0-18.07,0-1.46,0-2,.45-2,1.82.17,7.75,3.08,14,10.14,17.77s16.6,1.32,20.54-5.11a24.2,24.2,0,0,0,2.07-5.31c.61-1.88,1.6-3.14,3.71-3.3a3.6,3.6,0,0,1,4.16,3.49c.34,4.77-1.77,8.5-5.06,11.7a27.63,27.63,0,0,1-30.83,4.88A23,23,0,0,1,375.24,60.6,38.3,38.3,0,0,1,376,34.84c3.33-8.41,9.26-14.23,18.37-16.06,13.06-2.63,24.77,3.53,28.71,16.3a29.58,29.58,0,0,1,.82,12.17A1.75,1.75,0,0,1,422.12,49a23.11,23.11,0,0,1-2.34.21c-5.76,0-11.52,0-17.28,0Zm-2.9-7.5c4.53,0,9.07,0,13.61,0,1.62,0,2.16-.6,2-2.22A17.74,17.74,0,0,0,414,34.55c-4.14-9.39-15.7-12-24.12-5.48-3.34,2.58-5.89,5.68-6.25,10.13-.15,1.87.2,2.46,2.08,2.49C390.35,41.77,395,41.71,399.6,41.71Z"/><path class="cls-2" d="M354.49,21.93a19.87,19.87,0,0,1,.47-2.37c.55-1.63,2.05-2.31,4.2-2a2.82,2.82,0,0,1,2.53,3c-.06,2.09-.48,4.17-.45,6.25,0,2.87.37,5.73.53,8.59a14.36,14.36,0,0,1-.08,2.86c-.28,1.83-1.64,2.67-3.92,2.57a3,3,0,0,1-3.08-2.92,21.22,21.22,0,0,1-.15-2.75c.26-4.1-2-6.57-5.43-8.08-5.44-2.38-10.83-2.43-15.91,1a7.69,7.69,0,0,0-3.42,7.83,6.78,6.78,0,0,0,4.76,5.88,56.48,56.48,0,0,0,8.76,1.9c4.22.67,8.45,1.21,12.41,2.91,4.77,2,8.32,5.27,9.07,10.62,1,7.07-1.45,12.81-7.52,16.74-5.36,3.47-11.35,4.2-17.58,3.63A25.33,25.33,0,0,1,327.23,73a3.56,3.56,0,0,0-.56-.2c0,.93.06,1.77,0,2.61-.18,2.28-1.26,3.24-3.56,3.27s-3.94-1.09-4-3.31a30.75,30.75,0,0,1,.36-5.33,33.46,33.46,0,0,0-.2-10.8,14.49,14.49,0,0,1-.15-3.89c.16-1.8,1.46-2.67,3.56-2.65s2.93.73,3.16,2.68a24,24,0,0,1,.24,3.39,8.89,8.89,0,0,0,4.49,8.33c6.29,3.72,13,4.74,19.92,2a8.76,8.76,0,0,0,5.28-11.52c-1.19-2.89-3.77-4.22-6.58-4.87-3.25-.75-6.6-1.1-9.91-1.65a43.2,43.2,0,0,1-11.61-3.37,11.06,11.06,0,0,1-6.58-8.53c-1.05-6.2.38-11.62,5.25-15.84a20.92,20.92,0,0,1,11.38-4.83c4.88-.61,9.67-.4,14.15,1.92C352.71,20.85,353.54,21.38,354.49,21.93Z"/><path class="cls-2" d="M230.51,48.11c0-4.54.09-9.08,0-13.61a21.55,21.55,0,0,0-1-5.62c-.64-2-1.63-2.41-3.73-2a26.06,26.06,0,0,1-4,.58,3.2,3.2,0,0,1-3.52-3c-.24-2.09.75-3.76,2.84-4a68.64,68.64,0,0,1,6.88,0,39,39,0,0,0,6.5-.19c3.78-.65,5,1.24,4.92,4.48-.13,6-.44,11.94-.51,17.91-.08,7,0,14.06,0,21.08a13.47,13.47,0,0,0,.75,4c.59,1.8,1.6,2.19,3.45,1.88a25.35,25.35,0,0,1,4.75-.42,2.75,2.75,0,0,1,2.68,2.42,3.43,3.43,0,0,1-1.35,3.69,6.07,6.07,0,0,1-4.35,1c-2.09-.17-4.17-.36-6.24-.65-4.2-.58-8.35,0-12.51.43a25.76,25.76,0,0,1-4.56.14c-2.38-.15-3.57-1.77-3.3-4.24a3.4,3.4,0,0,1,4-3c1.25.11,2.5.34,3.74.55,1.88.31,2.92-.1,3.45-1.91a24.6,24.6,0,0,0,1-5.88C230.61,57.2,230.51,52.65,230.51,48.11Z"/><path class="cls-2" d="M517.13,71A6.77,6.77,0,0,1,510,77.78a7,7,0,0,1-6.54-7.35c.12-2.89,2.84-6.82,7.19-6.56A6.82,6.82,0,0,1,517.13,71Z"/><path class="cls-2" d="M239.15,8a6.05,6.05,0,0,1-6.29,6.09,6.14,6.14,0,1,1,.23-12.28A6.07,6.07,0,0,1,239.15,8Z"/><path class="cls-3" d="M34.32,80.56A11.8,11.8,0,0,1,46.21,92.67c0,7.88-5.36,12.8-12.11,12.8A12,12,0,0,1,21.92,93.22C21.92,86.65,26.58,80.56,34.32,80.56Zm-.73,1.36c-4.11,0-7.85,3.45-7.85,10.31s3.74,11.84,9,11.84c4.44,0,7.78-3.3,7.78-10.38C42.47,86,38.39,81.92,33.59,81.92Z"/><path class="cls-3" d="M71.77,104a39.27,39.27,0,0,0-5.68,1.36V103c-.67.41-1.62.92-2.28,1.32a6.65,6.65,0,0,1-2.9,1.07c-2.93,0-6.82-2.94-6.82-8.07s4.47-8.92,9.5-8.92a7.57,7.57,0,0,1,2.5.41V83.39c0-2.35-.26-2.43-2.87-2.65v-.95A36.26,36.26,0,0,0,69,78.54v22.12c0,1.91.26,2.17,1.62,2.24l1.17.07ZM66.09,91.68a4.61,4.61,0,0,0-3.86-1.88c-1.76,0-4.88,1.18-4.88,6.46,0,4.44,2.76,6.79,5.1,6.82a6.65,6.65,0,0,0,3.64-1.32Z"/><path class="cls-3" d="M86.29,88.37a7.89,7.89,0,0,1,8,8.22c0,5.94-4.4,8.77-8,8.77a8.05,8.05,0,0,1-8.14-8.18A8.41,8.41,0,0,1,86.29,88.37Zm-.44,1.25c-2.23,0-4.25,2.17-4.25,6.42,0,4.66,2.05,8,5.06,8,2.27,0,4.18-1.65,4.18-6.67C90.84,93.11,89.08,89.62,85.85,89.62Z"/><path class="cls-3" d="M111.78,104.92v-1c2.13-.22,2.35-.48,2.35-3v-6c0-2.57-.91-4.29-3.34-4.29a6.45,6.45,0,0,0-4.07,1.9v8.59c0,2.53.22,2.6,2.39,2.82v1h-7.93v-1c2.42-.26,2.64-.4,2.64-2.82V93.51c0-2.38-.25-2.49-2.23-2.82v-1a20.58,20.58,0,0,0,5.13-1.47v2.9c.74-.51,1.54-1.06,2.5-1.69a5.6,5.6,0,0,1,3-1.1c2.94,0,4.77,2.17,4.77,5.73v7c0,2.49.22,2.6,2.35,2.82v1Z"/><path class="cls-3" d="M133.06,104.88a3.74,3.74,0,0,1-1.58.48c-2.35,0-3.59-1.43-3.59-4.37V90.32h-2.54l-.14-.44,1-1.07h1.69V85.73c.69-.73,1.76-1.68,2.45-2.42l.55.08c-.07,1.54-.11,3.66-.11,5.42H135a1.15,1.15,0,0,1-.22,1.51h-4v9.39c0,3,1.18,3.52,2.13,3.52a5.19,5.19,0,0,0,2.24-.59l.33,1Z"/><path class="cls-3" d="M149,88.37a7.89,7.89,0,0,1,8,8.22c0,5.94-4.4,8.77-8,8.77a8.05,8.05,0,0,1-8.15-8.18A8.41,8.41,0,0,1,149,88.37Zm-.44,1.25c-2.24,0-4.26,2.17-4.26,6.42,0,4.66,2.06,8,5.06,8,2.28,0,4.18-1.65,4.18-6.67C153.52,93.11,151.76,89.62,148.54,89.62Z"/><path class="cls-3" d="M163.28,104.92v-1c2.35-.22,2.64-.4,2.64-2.82V83.5c0-2.24-.18-2.46-2.53-2.76v-.95a26.1,26.1,0,0,0,5.43-1.25v22.53c0,2.42.22,2.6,2.6,2.82v1Z"/><path class="cls-3" d="M185.8,88.37a7.9,7.9,0,0,1,8,8.22c0,5.94-4.41,8.77-8,8.77a8.05,8.05,0,0,1-8.14-8.18A8.41,8.41,0,0,1,185.8,88.37Zm-.44,1.25c-2.24,0-4.26,2.17-4.26,6.42,0,4.66,2.06,8,5.07,8,2.27,0,4.18-1.65,4.18-6.67C190.35,93.11,188.59,89.62,185.36,89.62Z"/><path class="cls-3" d="M205.83,99.56a2.7,2.7,0,0,0-1.21,1.84c0,.66.62,1.39,2.27,1.39,1.36,0,2.9,0,4.11,0,2.35,0,5.35.77,5.35,4.41,0,3.81-4.51,7.41-9.39,7.41-4.14,0-6.38-2.43-6.45-4.59a2.91,2.91,0,0,1,.91-2.09,36,36,0,0,1,3-2.64,4.8,4.8,0,0,1-2.75-2,3.33,3.33,0,0,1-.44-1.58,7.81,7.81,0,0,0,3.38-2.53Zm1.76.37c-3.42,0-6.24-2.09-6.24-5.54,0-4.18,3.74-6.13,6.6-6.13a7.48,7.48,0,0,1,3.52.92,24.47,24.47,0,0,0,4.92-.55l.22.33a4.57,4.57,0,0,1-1.36,2c-.55,0-1.76-.15-2.27-.19A5.7,5.7,0,0,1,214,94.06C214,98.06,210.74,99.93,207.59,99.93Zm.84,5.43c-1.8,0-2.6.22-3.26.77a4.22,4.22,0,0,0-1.77,3c0,2,2.1,3.52,4.92,3.52,3.48,0,5.47-1.8,5.47-4.15a2.75,2.75,0,0,0-1.62-2.67A9.73,9.73,0,0,0,208.43,105.36Zm-.84-15.92c-1.65,0-3.12,1.5-3.12,4.4s1.47,4.91,3.48,4.91c1.62-.07,3.05-1.43,3.05-4.4S209.64,89.44,207.59,89.44Z"/><path class="cls-3" d="M222.29,104.92v-1c2.35-.22,2.61-.4,2.61-2.9V93.44c0-2.28-.11-2.42-2.35-2.79v-.88a23.68,23.68,0,0,0,5.24-1.47V101c0,2.5.26,2.68,2.65,2.9v1Zm2.39-19.52,4-6.05a13.19,13.19,0,0,1,3.6-.22l.11.48L225.52,86Z"/><path class="cls-3" d="M248.15,105.36a2.68,2.68,0,0,1-1.72-.7,3.4,3.4,0,0,1-.88-1.65c-1.47,1-3.27,2.35-4.4,2.35a4.5,4.5,0,0,1-4.48-4.51c0-1.8,1-3,3-3.67,2.24-.77,5-1.73,5.79-2.39v-.73c0-2.6-1.32-4.11-3.22-4.11a2.13,2.13,0,0,0-1.73.84,8.12,8.12,0,0,0-1,2.39,1,1,0,0,1-1.06.84,1.76,1.76,0,0,1-1.62-1.61c0-.51.48-1,1.21-1.47a15.52,15.52,0,0,1,5.29-2.57,4.82,4.82,0,0,1,5,5.25v7.08c0,1.69.62,2.2,1.28,2.2a2.9,2.9,0,0,0,1.32-.4l.37,1Zm-2.68-9.28c-.8.4-2.56,1.17-3.41,1.54-1.39.62-2.23,1.32-2.23,2.68a2.66,2.66,0,0,0,2.64,2.82,4.87,4.87,0,0,0,3-1.32Z"/><path class="cls-3" d="M271.41,104.54v-1c3-.33,3.3-.48,3.3-3.59V85.35c0-3.15-.29-3.3-3.3-3.63v-1h9.83v1c-3,.33-3.34.48-3.34,3.63V99.92c0,3.15.3,3.26,3.34,3.59v1Z"/><path class="cls-3" d="M298.19,104.54v-1c2.13-.22,2.35-.48,2.35-3V94.49c0-2.57-.92-4.3-3.34-4.3a6.36,6.36,0,0,0-4.07,1.91v8.59c0,2.53.22,2.6,2.38,2.82v1h-7.92v-1c2.42-.26,2.64-.4,2.64-2.82V93.13c0-2.39-.26-2.5-2.24-2.83v-1a20.54,20.54,0,0,0,5.14-1.47v2.9c.73-.51,1.54-1.06,2.49-1.69a5.63,5.63,0,0,1,3.05-1.1c2.93,0,4.76,2.17,4.76,5.73v7c0,2.49.22,2.6,2.35,2.82v1Z"/><path class="cls-3" d="M330.25,103.62a39,39,0,0,0-5.69,1.36v-2.39c-.66.41-1.61.92-2.27,1.32a6.65,6.65,0,0,1-2.9,1.07c-2.94,0-6.83-2.94-6.83-8.07S317,88,322.06,88a7.5,7.5,0,0,1,2.5.41V83c0-2.34-.26-2.42-2.86-2.64v-1a36.76,36.76,0,0,0,5.76-1.25v22.12c0,1.91.25,2.17,1.61,2.24l1.18.07Zm-5.69-12.33a4.6,4.6,0,0,0-3.85-1.87c-1.76,0-4.88,1.18-4.88,6.46,0,4.44,2.75,6.79,5.1,6.82a6.59,6.59,0,0,0,3.63-1.32Z"/><path class="cls-3" d="M349.9,101.42c-2.34,2.93-4.91,3.56-6.09,3.56-4.47,0-7.18-3.67-7.18-7.89A9.46,9.46,0,0,1,339,90.67,7.54,7.54,0,0,1,344.47,88a5.72,5.72,0,0,1,5.62,5.69c0,.73-.15,1.06-.74,1.21s-5.43.48-9.79.62c-.11,4.92,2.9,6.94,5.5,6.94a6.24,6.24,0,0,0,4.26-1.87Zm-6.31-12c-1.68,0-3.33,1.57-3.85,4.55,2.06,0,4.11,0,6.28-.11.66,0,.88-.19.88-.74A3.42,3.42,0,0,0,343.59,89.39Z"/><path class="cls-3" d="M356.32,89.2a23.9,23.9,0,0,0,5.32-1.57v2.93c.11-.07,3-1.76,3.19-1.83A5.16,5.16,0,0,1,367,88c4,0,6.49,3.38,6.49,7,0,5.58-4.4,9.1-9.21,10a6.14,6.14,0,0,1-2.6-.66v5c0,2.71.29,2.93,3.12,3.19v1h-8.7v-1c2.39-.26,2.68-.44,2.68-2.9V92.87c0-2.2-.07-2.35-2.42-2.68Zm5.32,12.55a5.31,5.31,0,0,0,3.48,1.43c3.19,0,5.25-2.68,5.25-6.79,0-4-2.31-6.2-4.92-6.2a7.37,7.37,0,0,0-3.81,1.58Z"/><path class="cls-3" d="M393.73,101.42c-2.35,2.93-4.91,3.56-6.09,3.56-4.47,0-7.19-3.67-7.19-7.89a9.42,9.42,0,0,1,2.39-6.42A7.54,7.54,0,0,1,388.3,88a5.72,5.72,0,0,1,5.62,5.69c0,.73-.15,1.06-.74,1.21s-5.43.48-9.79.62c-.11,4.92,2.9,6.94,5.5,6.94a6.26,6.26,0,0,0,4.26-1.87Zm-6.31-12c-1.68,0-3.33,1.57-3.85,4.55,2.06,0,4.11,0,6.27-.11.66,0,.88-.19.88-.74A3.4,3.4,0,0,0,387.42,89.39Z"/><path class="cls-3" d="M410.6,104.54v-1c2.13-.22,2.35-.48,2.35-3V94.49c0-2.57-.91-4.3-3.34-4.3a6.41,6.41,0,0,0-4.07,1.91v8.59c0,2.53.22,2.6,2.39,2.82v1H400v-1c2.42-.26,2.64-.4,2.64-2.82V93.13c0-2.39-.25-2.5-2.23-2.83v-1a20.58,20.58,0,0,0,5.13-1.47v2.9c.74-.51,1.54-1.06,2.5-1.69a5.6,5.6,0,0,1,3-1.1c2.94,0,4.77,2.17,4.77,5.73v7c0,2.49.22,2.6,2.35,2.82v1Z"/><path class="cls-3" d="M442,103.62a39.63,39.63,0,0,0-5.69,1.36v-2.39c-.66.41-1.61.92-2.27,1.32a6.65,6.65,0,0,1-2.9,1.07c-2.93,0-6.82-2.94-6.82-8.07s4.47-8.92,9.5-8.92a7.48,7.48,0,0,1,2.49.41V83c0-2.34-.25-2.42-2.86-2.64v-1a36.76,36.76,0,0,0,5.76-1.25v22.12c0,1.91.26,2.17,1.61,2.24l1.18.07Zm-5.69-12.33a4.6,4.6,0,0,0-3.85-1.87c-1.76,0-4.88,1.18-4.88,6.46,0,4.44,2.75,6.79,5.1,6.82a6.59,6.59,0,0,0,3.63-1.32Z"/><path class="cls-3" d="M447.72,104.54v-1c2.31-.22,2.57-.4,2.57-2.9V93.06c0-2.28-.11-2.43-2.31-2.79v-.88a24.2,24.2,0,0,0,5.21-1.47v12.69c0,2.5.25,2.68,2.64,2.9v1Zm3.82-20.21a2,2,0,0,1-2-2,2,2,0,0,1,2-2,1.92,1.92,0,0,1,1.87,2A2,2,0,0,1,451.54,84.33Z"/><path class="cls-3" d="M475,101.42c-2.34,2.93-4.91,3.56-6.09,3.56-4.47,0-7.18-3.67-7.18-7.89a9.46,9.46,0,0,1,2.38-6.42A7.54,7.54,0,0,1,469.54,88a5.72,5.72,0,0,1,5.62,5.69c0,.73-.15,1.06-.74,1.21s-5.43.48-9.79.62c-.11,4.92,2.9,6.94,5.5,6.94a6.24,6.24,0,0,0,4.26-1.87Zm-6.31-12c-1.68,0-3.33,1.57-3.85,4.55,2.06,0,4.11,0,6.28-.11.66,0,.88-.19.88-.74A3.42,3.42,0,0,0,468.66,89.39Z"/><path class="cls-3" d="M491.84,104.54v-1c2.13-.22,2.35-.48,2.35-3V94.49c0-2.57-.91-4.3-3.34-4.3a6.41,6.41,0,0,0-4.07,1.91v8.59c0,2.53.22,2.6,2.39,2.82v1h-7.93v-1c2.42-.26,2.64-.4,2.64-2.82V93.13c0-2.39-.25-2.5-2.23-2.83v-1a20.58,20.58,0,0,0,5.13-1.47v2.9c.74-.51,1.54-1.06,2.5-1.69a5.6,5.6,0,0,1,3-1.1c2.94,0,4.77,2.17,4.77,5.73v7c0,2.49.22,2.6,2.35,2.82v1Z"/><path class="cls-3" d="M513.45,104.5a3.74,3.74,0,0,1-1.58.48c-2.35,0-3.59-1.43-3.59-4.37V89.94h-2.54l-.14-.44,1-1.07h1.69V85.35c.69-.73,1.76-1.68,2.45-2.42l.55.07c-.07,1.54-.11,3.67-.11,5.43h4.19a1.15,1.15,0,0,1-.23,1.51h-4v9.39c0,3,1.18,3.52,2.13,3.52a5.19,5.19,0,0,0,2.24-.59l.33,1Z"/><path class="cls-3" d="M535.16,101.42c-2.35,2.93-4.91,3.56-6.09,3.56-4.47,0-7.19-3.67-7.19-7.89a9.42,9.42,0,0,1,2.39-6.42A7.53,7.53,0,0,1,529.73,88a5.72,5.72,0,0,1,5.61,5.69c0,.73-.14,1.06-.73,1.21s-5.43.48-9.79.62c-.11,4.92,2.89,6.94,5.5,6.94a6.22,6.22,0,0,0,4.25-1.87Zm-6.31-12c-1.69,0-3.34,1.57-3.85,4.55,2,0,4.11,0,6.27-.11.66,0,.88-.19.88-.74A3.4,3.4,0,0,0,528.85,89.39Z"/></svg>