<svg id="Capa_2" data-name="Capa 2" xmlns="http://www.w3.org/2000/svg" viewBox="0 0 1267 386.44"><defs><style>.cls-1{fill:#231f20;}</style></defs><title>Shooting_room_002</title><circle class="cls-1" cx="450.7" cy="129.35" r="24.86"/><rect class="cls-1" x="518.51" y="139.49" width="33.37" height="71.9" rx="11.78"/><rect class="cls-1" x="556.05" y="157.9" width="6.99" height="34.48" rx="1.7"/><rect class="cls-1" x="567.22" y="157.9" width="20.98" height="34.48" rx="2.23"/><rect class="cls-1" x="532.01" y="209.67" width="7.12" height="163.42" rx="2"/><rect class="cls-1" x="195.3" y="299.07" width="7.12" height="92.5" rx="1.7" transform="translate(202.81 170.36) rotate(-34.02)"/><rect class="cls-1" x="574.7" y="379.23" width="20.12" height="7.21" rx="2.29"/><rect class="cls-1" x="144.77" y="299.07" width="7.12" height="92.5" rx="1.88" transform="translate(440.04 714.52) rotate(-145.98)"/><rect class="cls-1" x="114.34" y="379.23" width="20.12" height="7.21" rx="2.45" transform="translate(610.76 765.66) rotate(-180)"/><rect class="cls-1" x="144.77" y="183.89" width="7.12" height="92.5" rx="2.07" transform="translate(504.48 503.88) rotate(-145.98)"/><rect class="cls-1" x="163.82" y="282.21" width="20.12" height="7.21" rx="2.3" transform="translate(709.73 571.63) rotate(-180)"/><path class="cls-1" d="M90,182.82l-2.77.35a7.75,7.75,0,0,0,.35-2.22Z" transform="translate(361.97)"/><path class="cls-1" d="M150.55,166.82a8.4,8.4,0,0,1-7.27,9.35L90,182.82l44.74,34.83a8.39,8.39,0,0,1,1.45,11.78L134,232.2a8.48,8.48,0,0,1-11.84,1.52L79.09,200.2l-25,48.55L96,358a10.86,10.86,0,0,1-6.23,14l-6.16,2.36a10.79,10.79,0,0,1-14-6.23L28.26,260.38v113.5a8.11,8.11,0,0,1-8.1,8.11h-12A8.12,8.12,0,0,1,0,373.88v-138c.05-1.62.14-3.23.31-4.84a39.14,39.14,0,0,1,.61-4.71A17,17,0,0,1,2.5,222L34,160.87A18.13,18.13,0,0,1,58.38,153l6.37,3.29,10.38,5.36a15.15,15.15,0,0,0,3.42,1.58,10.27,10.27,0,0,0,3.75.06c4-.52,7.88-1,11.84-1.54L108,160.06l14.22-1.79,11.71-1.47,6.35-.79.44-.06a8.47,8.47,0,0,1,9.42,7.34Z" transform="translate(361.97)"/><rect class="cls-1" x="775.85" width="373.04" height="296.8"/><rect class="cls-1" x="734.2" y="3.18" width="9.87" height="361.92" rx="3.51"/><rect class="cls-1" x="407.28" y="263.76" width="9.87" height="128.31" rx="2.35" transform="translate(249.06 286.74) rotate(-34.02)"/><rect class="cls-1" x="793.42" y="374.95" width="27.91" height="10" rx="3.18"/><rect class="cls-1" x="337.18" y="263.76" width="9.87" height="128.31" rx="2.61" transform="translate(804.19 791.12) rotate(-145.98)"/><rect class="cls-1" x="294.97" y="374.95" width="27.91" height="10" rx="3.4" transform="translate(979.82 759.9) rotate(-180)"/><rect class="cls-1" x="355.93" width="63.8" height="10" rx="2.86" transform="translate(1137.63 10) rotate(-180)"/><rect class="cls-1" x="1179.87" y="3.18" width="9.87" height="361.92" rx="3.51"/><rect class="cls-1" x="852.95" y="263.76" width="9.87" height="128.31" rx="2.35" transform="translate(325.33 536.08) rotate(-34.02)"/><rect class="cls-1" x="1239.09" y="374.95" width="27.91" height="10" rx="3.18"/><rect class="cls-1" x="782.85" y="263.76" width="9.87" height="128.31" rx="2.61" transform="translate(1619.25 1040.46) rotate(-145.98)"/><rect class="cls-1" x="740.64" y="374.95" width="27.91" height="10" rx="3.4" transform="translate(1871.15 759.9) rotate(-180)"/><rect class="cls-1" x="783.75" width="59.43" height="10" rx="2.72" transform="translate(1988.89 10) rotate(-180)"/><rect class="cls-1" x="10.01" y="256.81" width="4.82" height="10.38" rx="1.7"/><rect class="cls-1" x="15.44" y="259.47" width="1.01" height="4.98" rx="0.25"/><rect class="cls-1" x="17.05" y="259.47" width="3.03" height="4.98" rx="0.32"/><rect class="cls-1" x="11.96" y="266.94" width="1.03" height="23.6" rx="0.29"/><rect class="cls-1" x="-346.36" y="279.85" width="1.03" height="13.36" rx="0.25" transform="translate(142.47 -144.45) rotate(-34.02)"/><rect class="cls-1" x="18.13" y="291.43" width="2.91" height="1.04" rx="0.33"/><rect class="cls-1" x="-353.65" y="279.85" width="1.03" height="13.36" rx="0.27" transform="translate(-444.18 326.45) rotate(-145.98)"/><rect class="cls-1" x="-358.05" y="291.43" width="2.91" height="1.04" rx="0.35" transform="translate(-351.22 583.89) rotate(-180)"/><rect class="cls-1" x="-350.9" y="277.42" width="2.91" height="1.04" rx="0.33" transform="translate(-336.93 555.88) rotate(-180)"/><path class="cls-1" d="M-361.57,263.07l-.4.05a1.13,1.13,0,0,0,.05-.32Z" transform="translate(361.97)"/><rect class="cls-1" x="-228.7" y="256.81" width="4.82" height="10.38" rx="1.7" transform="translate(-90.61 524) rotate(-180)"/><rect class="cls-1" x="-230.31" y="259.47" width="1.01" height="4.98" rx="0.25" transform="translate(-97.65 523.91) rotate(-180)"/><rect class="cls-1" x="-233.94" y="259.47" width="3.03" height="4.98" rx="0.32" transform="translate(-102.89 523.91) rotate(-180)"/><rect class="cls-1" x="-226.86" y="266.94" width="1.03" height="23.6" rx="0.29" transform="translate(-90.72 557.48) rotate(-180)"/><rect class="cls-1" x="-230.51" y="279.85" width="1.03" height="13.36" rx="0.25" transform="matrix(-0.83, -0.56, 0.56, -0.83, -218.96, 395.35)"/><rect class="cls-1" x="-234.9" y="291.43" width="2.91" height="1.04" rx="0.33" transform="translate(-104.93 583.89) rotate(-180)"/><rect class="cls-1" x="-223.21" y="279.85" width="1.03" height="13.36" rx="0.27" transform="translate(163.55 -75.55) rotate(-34.02)"/><rect class="cls-1" x="141.28" y="291.43" width="2.91" height="1.04" rx="0.35"/><rect class="cls-1" x="134.13" y="277.42" width="2.91" height="1.04" rx="0.33"/><path class="cls-1" d="M-214.27,263.07l.4.05a1.13,1.13,0,0,1,0-.32Z" transform="translate(361.97)"/><rect class="cls-1" x="47.18" y="236.67" width="53.87" height="42.86"/><rect class="cls-1" x="41.16" y="237.12" width="1.43" height="52.26" rx="0.51"/><rect class="cls-1" x="-315.75" y="274.75" width="1.43" height="18.53" rx="0.34" transform="translate(149.15 -127.64) rotate(-34.02)"/><rect class="cls-1" x="49.71" y="290.81" width="4.03" height="1.44" rx="0.46"/><rect class="cls-1" x="-325.87" y="274.75" width="1.43" height="18.53" rx="0.38" transform="translate(-391.59 337.51) rotate(-145.98)"/><rect class="cls-1" x="-331.97" y="290.81" width="4.03" height="1.44" rx="0.49" transform="translate(-297.93 583.06) rotate(-180)"/><rect class="cls-1" x="-323.16" y="236.67" width="9.21" height="1.44" rx="0.41" transform="translate(-275.14 474.78) rotate(-180)"/><rect class="cls-1" x="105.52" y="237.12" width="1.43" height="52.26" rx="0.51"/><rect class="cls-1" x="-251.39" y="274.75" width="1.43" height="18.53" rx="0.34" transform="translate(160.17 -91.64) rotate(-34.02)"/><rect class="cls-1" x="114.07" y="290.81" width="4.03" height="1.44" rx="0.46"/><rect class="cls-1" x="-261.51" y="274.75" width="1.43" height="18.53" rx="0.38" transform="translate(-273.9 373.52) rotate(-145.98)"/><rect class="cls-1" x="-267.61" y="290.81" width="4.03" height="1.44" rx="0.49" transform="translate(-169.22 583.06) rotate(-180)"/><rect class="cls-1" x="-261.38" y="236.67" width="8.58" height="1.44" rx="0.39" transform="translate(-152.22 474.78) rotate(-180)"/></svg>